<svg width="320" height="145" viewBox="0 0 320 145" fill="none" xmlns="http://www.w3.org/2000/svg">
<g clip-path="url(#clip0_262_936)">
<rect width="320" height="145" rx="20" fill="#D2EEEC"/>
<path d="M32.3991 23.4372L25.1869 17.2485C24.7607 16.8827 24.4456 16.4046 24.2777 15.8686L23.5094 13.4159C23.4954 13.3713 23.4845 13.326 23.479 13.2795C23.4556 13.0793 23.4128 12.4981 23.6666 12.2451C23.8958 12.0167 19.4723 13.4031 19.8495 13.4409C20.214 13.4773 20.5131 14.019 20.6 14.1926C20.6177 14.2278 20.6315 14.2645 20.6433 14.3021L21.4149 16.7654C21.5828 17.3014 21.5969 17.8738 21.4555 18.4174L19.0632 27.6148C18.9148 28.1851 19.1588 28.7482 19.748 28.7547C22.5647 28.7855 30.1913 26.3964 32.4869 24.7641C32.9672 24.4227 32.8463 23.8209 32.3991 23.4372Z" stroke="#A4DDD9" stroke-linecap="round"/>
<path d="M28.299 20.3425C27.1665 21.7452 25.857 19.7983 24.1542 22.1648C22.6941 24.1941 21.1419 22.5845 20.6648 22.734" stroke="#A4DDD9" stroke-linecap="round"/>
<path d="M26.3283 22.4144L26.3378 22.4114L26.3408 22.421L26.3313 22.424L26.3283 22.4144Z" stroke="#A4DDD9" stroke-linejoin="round"/>
<path d="M25.9593 24.6154L25.9689 24.6124L25.9718 24.6219L25.9623 24.6249L25.9593 24.6154Z" stroke="#A4DDD9" stroke-linejoin="round"/>
<path d="M21.4869 27.0643L21.4964 27.0613L21.4994 27.0709L21.4899 27.0739L21.4869 27.0643Z" stroke="#A4DDD9" stroke-linejoin="round"/>
<path d="M27.7022 25.1278L27.7117 25.1248L27.7147 25.1344L27.7052 25.1374L27.7022 25.1278Z" stroke="#A4DDD9" stroke-linejoin="round"/>
<path d="M28.6822 23.2384L28.6918 23.2354L28.6948 23.245L28.6852 23.248L28.6822 23.2384Z" stroke="#A4DDD9" stroke-linejoin="round"/>
<path d="M23.2555 25.9863L23.265 25.9833L23.268 25.9929L23.2585 25.9959L23.2555 25.9863Z" stroke="#A4DDD9" stroke-linejoin="round"/>
<path d="M21.8558 24.8634L21.8654 24.8604L21.8684 24.87L21.8588 24.8729L21.8558 24.8634Z" stroke="#A4DDD9" stroke-linejoin="round"/>
<path d="M308.438 128.476L301.225 122.287C300.799 121.921 300.484 121.443 300.316 120.907L299.548 118.454C299.534 118.41 299.523 118.364 299.518 118.318C299.494 118.118 299.451 117.537 299.705 117.284C299.934 117.055 295.511 118.442 295.888 118.479C296.252 118.516 296.552 119.057 296.638 119.231C296.656 119.266 296.67 119.303 296.682 119.341L297.453 121.804C297.621 122.34 297.635 122.912 297.494 123.456L295.102 132.653C294.953 133.224 295.197 133.787 295.786 133.793C298.603 133.824 306.23 131.435 308.525 129.803C309.006 129.461 308.885 128.859 308.438 128.476Z" stroke="#A4DDD9" stroke-linecap="round"/>
<path d="M304.337 125.381C303.205 126.784 301.895 124.837 300.193 127.203C298.733 129.233 297.18 127.623 296.703 127.772" stroke="#A4DDD9" stroke-linecap="round"/>
<path d="M302.367 127.453L302.376 127.45L302.379 127.459L302.37 127.462L302.367 127.453Z" stroke="#A4DDD9" stroke-linejoin="round"/>
<path d="M301.998 129.654L302.007 129.651L302.01 129.66L302.001 129.663L301.998 129.654Z" stroke="#A4DDD9" stroke-linejoin="round"/>
<path d="M297.525 132.103L297.535 132.1L297.538 132.109L297.528 132.112L297.525 132.103Z" stroke="#A4DDD9" stroke-linejoin="round"/>
<path d="M303.741 130.166L303.75 130.163L303.753 130.173L303.744 130.176L303.741 130.166Z" stroke="#A4DDD9" stroke-linejoin="round"/>
<path d="M304.721 128.277L304.73 128.274L304.733 128.283L304.724 128.286L304.721 128.277Z" stroke="#A4DDD9" stroke-linejoin="round"/>
<path d="M299.294 131.025L299.304 131.022L299.307 131.031L299.297 131.034L299.294 131.025Z" stroke="#A4DDD9" stroke-linejoin="round"/>
<path d="M297.894 129.902L297.904 129.899L297.907 129.908L297.897 129.911L297.894 129.902Z" stroke="#A4DDD9" stroke-linejoin="round"/>
<path d="M21.0771 93.4475V93.4475C19.7972 92.9297 18.3399 93.5477 17.8221 94.8276L16.1348 98.9993C15.0993 101.559 16.3352 104.474 18.8951 105.509V105.509M21.0771 93.4475C20.8701 93.9595 21.1172 94.5424 21.6292 94.7495C22.1412 94.9566 22.7241 94.7094 22.9312 94.1974C23.1383 93.6854 22.8911 93.1025 22.3792 92.8954C21.8672 92.6883 21.2842 92.9355 21.0771 93.4475ZM26.1759 95.5098C25.9688 96.0218 25.3858 96.2689 24.8739 96.0619C24.3619 95.8548 24.1147 95.2718 24.3218 94.7598C24.5289 94.2479 25.1118 94.0007 25.6238 94.2078C26.1358 94.4149 26.3829 94.9978 26.1759 95.5098ZM26.1759 95.5098V95.5098C27.1998 95.924 27.6942 97.0898 27.28 98.1138L25.4052 102.749C24.3697 105.309 21.4551 106.545 18.8951 105.509V105.509M18.8951 105.509C17.0203 110.145 24.7126 113.795 26.775 108.697L28.2748 104.988" stroke="#A4DDD9"/>
<path d="M30.2278 104.16C29.9172 104.928 29.0428 105.299 28.2748 104.988C27.5069 104.678 27.1361 103.803 27.4467 103.035C27.7574 102.267 28.6318 101.897 29.3997 102.207C30.1677 102.518 30.5385 103.392 30.2278 104.16Z" stroke="#A4DDD9"/>
<path d="M28.841 103.589L28.8503 103.592L28.8466 103.602L28.8373 103.598L28.841 103.589Z" stroke="#A4DDD9" stroke-linejoin="round"/>
<circle cx="316" cy="38" r="6.25" stroke="#A4DDD9"/>
<path d="M316 31V31.5" stroke="#A4DDD9" stroke-linecap="round"/>
<path d="M316 43.5V45.5" stroke="#A4DDD9" stroke-linecap="round"/>
<path d="M311.146 33.8536C311.342 34.0488 311.658 34.0488 311.854 33.8536C312.049 33.6583 312.049 33.3417 311.854 33.1464L311.146 33.8536ZM310.646 33.3536L311.146 33.8536L311.854 33.1464L311.354 32.6464L310.646 33.3536Z" fill="#A4DDD9"/>
<path d="M319.396 33.8964C319.201 34.0917 319.201 34.4083 319.396 34.6036C319.592 34.7988 319.908 34.7988 320.104 34.6036L319.396 33.8964ZM320.646 32.6464L319.396 33.8964L320.104 34.6036L321.354 33.3536L320.646 32.6464Z" fill="#A4DDD9"/>
<path d="M320.854 42.1464C320.658 41.9512 320.342 41.9512 320.146 42.1464C319.951 42.3417 319.951 42.6583 320.146 42.8536L320.854 42.1464ZM321.354 42.6464L320.854 42.1464L320.146 42.8536L320.646 43.3536L321.354 42.6464Z" fill="#A4DDD9"/>
<path d="M308.5 38L309.5 38" stroke="#A4DDD9" stroke-linecap="round"/>
<path d="M312.604 42.1036C312.799 41.9083 312.799 41.5917 312.604 41.3964C312.408 41.2012 312.092 41.2012 311.896 41.3964L312.604 42.1036ZM311.354 43.3536L312.604 42.1036L311.896 41.3964L310.646 42.6464L311.354 43.3536Z" fill="#A4DDD9"/>
<path d="M316.5 35C316.5 35.5523 316.052 36 315.5 36C314.948 36 314.5 35.5523 314.5 35C314.5 34.4477 314.948 34 315.5 34C316.052 34 316.5 34.4477 316.5 35Z" stroke="#A4DDD9"/>
<path d="M314.5 39C314.5 39.5523 314.052 40 313.5 40C312.948 40 312.5 39.5523 312.5 39C312.5 38.4477 312.948 38 313.5 38C314.052 38 314.5 38.4477 314.5 39Z" stroke="#A4DDD9"/>
<path d="M320 40C320 40.5523 319.552 41 319 41C318.448 41 318 40.5523 318 40C318 39.4477 318.448 39 319 39C319.552 39 320 39.4477 320 40Z" stroke="#A4DDD9"/>
<circle cx="1" cy="1" r="1" transform="matrix(1 0 0 -1 315 30.5)" stroke="#A4DDD9"/>
<path d="M317 46.5C317 45.9477 316.552 45.5 316 45.5C315.448 45.5 315 45.9477 315 46.5C315 47.0523 315.448 47.5 316 47.5C316.552 47.5 317 47.0523 317 46.5Z" stroke="#A4DDD9"/>
<circle cx="1" cy="1" r="1" transform="matrix(1 0 0 -1 309 33)" stroke="#A4DDD9"/>
<path d="M308.5 38C308.5 37.4477 308.052 37 307.5 37C306.948 37 306.5 37.4477 306.5 38C306.5 38.5523 306.948 39 307.5 39C308.052 39 308.5 38.5523 308.5 38Z" stroke="#A4DDD9"/>
<circle cx="1" cy="1" r="1" transform="matrix(1 0 0 -1 309 45)" stroke="#A4DDD9"/>
<path d="M54.9174 131.785C54.691 130.931 55.1998 130.055 56.0539 129.829L62.6268 128.086C63.481 127.86 64.357 128.369 64.5835 129.223V129.223C64.6401 129.436 64.5129 129.655 64.2993 129.712L55.4066 132.07C55.193 132.126 54.974 131.999 54.9174 131.785V131.785Z" stroke="#A4DDD9"/>
<path d="M55.4942 126.356C55.4942 126.356 57.0735 126.995 57.9152 126.947C58.6652 126.905 59.3908 126.666 60.0192 126.254C60.6476 125.843 61.1566 125.273 61.495 124.603C61.8334 123.932 61.9894 123.184 61.9471 122.434C61.9049 121.684 61.666 120.958 61.2544 120.33C61.0573 120.029 60.8238 119.755 60.5604 119.515L60.417 119.361M53.4209 126.906C53.4209 126.906 54.3952 127.74 54.9715 128.031C55.9117 128.506 56.9604 128.724 58.0119 128.665C59.0635 128.606 60.0809 128.271 60.962 127.694C61.843 127.117 62.5567 126.318 63.0312 125.378C63.5057 124.437 63.7243 123.389 63.6651 122.337C63.6059 121.286 63.2709 120.268 62.6938 119.387C62.391 118.925 62.0271 118.509 61.6138 118.149L61.5222 118.091M60.417 119.361C61.0282 119.199 61.4507 118.682 61.5222 118.091M60.417 119.361C59.9063 119.497 59.3872 119.352 59.0231 119.021M61.5222 118.091C61.5444 117.907 61.5327 117.716 61.4825 117.527C61.3834 117.153 61.1519 116.85 60.8517 116.655M60.8159 114.701L60.7547 114.782M60.8159 114.701C61.0669 114.895 61.3887 114.815 61.5664 114.573C61.8314 114.212 61.7368 113.719 61.3909 113.451L61.0783 113.21C60.7324 112.942 60.231 112.975 59.9485 113.323C59.7606 113.554 59.7671 113.891 60.0137 114.081M60.8159 114.701L60.4148 114.391L60.0137 114.081M60.0137 114.081L59.9541 114.163M59.9541 114.163L60.7547 114.782M59.9541 114.163C59.483 113.799 59.2475 113.617 58.9898 113.608C58.9034 113.605 58.817 113.616 58.7341 113.641C58.487 113.715 58.305 113.95 57.941 114.421L54.0949 119.398C53.9915 119.532 53.9398 119.599 53.9067 119.663C53.7528 119.959 53.799 120.32 54.0227 120.567C54.0707 120.621 54.1376 120.672 54.2715 120.776M60.7547 114.782C61.066 115.022 61.2216 115.143 61.302 115.29C61.3978 115.466 61.4241 115.671 61.3758 115.866C61.3352 116.029 61.2149 116.185 60.9744 116.496L60.8517 116.655M54.2715 120.776L55.8937 122.029M54.2715 120.776L53.4832 121.797C53.2983 122.036 53.2059 122.156 53.1686 122.279C53.1108 122.47 53.1373 122.677 53.2414 122.847C53.3086 122.957 53.4283 123.049 53.6675 123.234C53.9068 123.419 54.0264 123.511 54.1498 123.549C54.3408 123.606 54.5473 123.58 54.7175 123.476C54.8275 123.409 54.92 123.289 55.1048 123.05L55.8937 122.029M55.8937 122.029C56.1719 122.244 56.5718 122.193 56.7868 121.915L59.0231 119.021M59.0231 119.021C58.8164 118.833 58.6596 118.586 58.5827 118.296C58.3704 117.495 58.8474 116.674 59.6481 116.461C60.0754 116.348 60.5084 116.431 60.8517 116.655" stroke="#A4DDD9"/>
<path d="M53.1271 126.984L56.9935 125.959" stroke="#A4DDD9" stroke-linecap="round"/>
<path d="M280.5 14.5C282.328 6.70409 293.682 6.70409 295.5 14.5C296.514 18.8454 291 27.5 288 27.5C285 27.5 279.485 18.8491 280.5 14.5Z" stroke="#A4DDD9"/>
<path d="M292.5 16C292.5 18.4853 290.485 20.5 288 20.5C285.515 20.5 283.5 18.4853 283.5 16C283.5 13.5147 285.515 11.5 288 11.5C290.485 11.5 292.5 13.5147 292.5 16Z" stroke="#A4DDD9"/>
<path d="M287.11 13.8858C287.062 14.0007 287.062 14.1463 287.062 14.4375V15.0325C287.062 15.0466 287.063 15.0537 287.058 15.0581C287.054 15.0625 287.047 15.0625 287.033 15.0625H286.438C286.146 15.0625 286.001 15.0625 285.886 15.1101C285.733 15.1735 285.611 15.2952 285.548 15.4483C285.5 15.5632 285.5 15.7088 285.5 16C285.5 16.2912 285.5 16.4368 285.548 16.5517C285.611 16.7048 285.733 16.8265 285.886 16.8899C286.001 16.9375 286.146 16.9375 286.438 16.9375H287.033C287.047 16.9375 287.054 16.9375 287.058 16.9419C287.063 16.9463 287.062 16.9534 287.062 16.9675V17.5625C287.062 17.8537 287.062 17.9993 287.11 18.1142C287.174 18.2673 287.295 18.389 287.448 18.4524C287.563 18.5 287.709 18.5 288 18.5C288.291 18.5 288.437 18.5 288.552 18.4524C288.705 18.389 288.826 18.2673 288.89 18.1142C288.938 17.9993 288.938 17.8537 288.938 17.5625V16.9675C288.938 16.9534 288.937 16.9463 288.942 16.9419C288.946 16.9375 288.953 16.9375 288.967 16.9375H289.562C289.854 16.9375 289.999 16.9375 290.114 16.8899C290.267 16.8265 290.389 16.7048 290.452 16.5517C290.5 16.4368 290.5 16.2912 290.5 16C290.5 15.7088 290.5 15.5632 290.452 15.4483C290.389 15.2952 290.267 15.1735 290.114 15.1101C289.999 15.0625 289.854 15.0625 289.562 15.0625H288.967C288.953 15.0625 288.946 15.0625 288.942 15.0581C288.937 15.0537 288.938 15.0466 288.938 15.0325V14.4375C288.938 14.1463 288.938 14.0007 288.89 13.8858C288.826 13.7327 288.705 13.611 288.552 13.5476C288.437 13.5 288.291 13.5 288 13.5C287.709 13.5 287.563 13.5 287.448 13.5476C287.295 13.611 287.174 13.7327 287.11 13.8858Z" stroke="#A4DDD9"/>
<path d="M10.5 54C10.5 59.5228 6.52285 63.5 1 63.5C-4.52285 63.5 -8.5 59.5228 -8.5 54C-8.5 48.4772 -4.52285 44.5 1 44.5C6.52285 44.5 10.5 48.4772 10.5 54Z" stroke="#A4DDD9"/>
<path d="M-0.77985 49.7716C-0.875 50.0014 -0.875 50.2926 -0.875 50.875V52.065C-0.875 52.0933 -0.875 52.1074 -0.883787 52.1162C-0.892574 52.125 -0.906716 52.125 -0.935 52.125H-2.125C-2.70743 52.125 -2.99864 52.125 -3.22835 52.2202C-3.53464 52.347 -3.77798 52.5904 -3.90485 52.8966C-4 53.1264 -4 53.4176 -4 54C-4 54.5824 -4 54.8736 -3.90485 55.1034C-3.77798 55.4096 -3.53464 55.653 -3.22835 55.7798C-2.99864 55.875 -2.70743 55.875 -2.125 55.875H-0.935C-0.906716 55.875 -0.892574 55.875 -0.883787 55.8838C-0.875 55.8926 -0.875 55.9067 -0.875 55.935V57.125C-0.875 57.7074 -0.875 57.9986 -0.77985 58.2284C-0.652982 58.5346 -0.409639 58.778 -0.103354 58.9049C0.126359 59 0.417573 59 1 59C1.58243 59 1.87364 59 2.10335 58.9049C2.40964 58.778 2.65298 58.5346 2.77985 58.2284C2.875 57.9986 2.875 57.7074 2.875 57.125V55.935C2.875 55.9067 2.875 55.8926 2.88379 55.8838C2.89257 55.875 2.90672 55.875 2.935 55.875H4.125C4.70743 55.875 4.99864 55.875 5.22835 55.7798C5.53464 55.653 5.77798 55.4096 5.90485 55.1034C6 54.8736 6 54.5824 6 54C6 53.4176 6 53.1264 5.90485 52.8966C5.77798 52.5904 5.53464 52.347 5.22835 52.2202C4.99864 52.125 4.70743 52.125 4.125 52.125H2.935C2.90672 52.125 2.89257 52.125 2.88379 52.1162C2.875 52.1074 2.875 52.0933 2.875 52.065V50.875C2.875 50.2926 2.875 50.0014 2.77985 49.7716C2.65298 49.4654 2.40964 49.222 2.10335 49.0952C1.87364 49 1.58243 49 1 49C0.417573 49 0.126359 49 -0.103354 49.0952C-0.409639 49.222 -0.652982 49.4654 -0.77985 49.7716Z" stroke="#A4DDD9"/>
<path d="M291.599 75.2646C290.213 75.8371 290.976 77.6857 292.363 77.1132L294.212 76.3496C294.722 76.1388 295.305 76.3789 295.516 76.8894L299.143 85.6732C299.716 87.0596 301.564 86.2963 300.992 84.9098C300.419 83.5234 299.274 80.7505 300.198 80.3688C301.123 79.9871 302.268 82.76 302.84 84.1464C303.413 85.5329 305.261 84.7695 304.689 83.3831L301.063 74.6023C300.852 74.0918 301.095 73.5071 301.606 73.2963L303.454 72.5329C304.841 71.9604 304.077 70.1118 302.691 70.6844L291.599 75.2646Z" stroke="#A4DDD9" stroke-linecap="round"/>
<path d="M297.658 68.9761C298.079 69.9971 297.593 71.1665 296.572 71.5881C295.552 72.0097 294.382 71.5238 293.961 70.5029C293.539 69.4819 294.025 68.3125 295.046 67.8909C296.067 67.4693 297.236 67.9552 297.658 68.9761Z" stroke="#A4DDD9"/>
<path d="M264.054 136.674C263.949 136.204 264.09 135.677 264.472 135.295C265.049 134.718 265.957 134.69 266.5 135.233C266.708 135.44 266.832 135.701 266.874 135.976C266.889 136.075 266.968 136.154 267.067 136.169C267.342 136.211 267.603 136.335 267.81 136.543C268.353 137.086 268.325 137.993 267.748 138.571C267.366 138.953 266.839 139.094 266.369 138.989C265.965 138.899 265.482 138.871 265.189 139.164L262.793 141.56L262.56 141.793L260.164 144.189C259.871 144.482 259.899 144.965 259.989 145.369C260.094 145.839 259.953 146.366 259.571 146.748C258.993 147.325 258.086 147.353 257.543 146.81C257.335 146.603 257.211 146.342 257.169 146.067C257.154 145.968 257.075 145.889 256.976 145.873C256.701 145.832 256.44 145.708 256.233 145.5C255.69 144.957 255.718 144.049 256.295 143.472C256.677 143.09 257.204 142.949 257.674 143.054C258.078 143.144 258.561 143.172 258.854 142.879L261.25 140.483L261.483 140.25L263.879 137.854C264.172 137.561 264.144 137.078 264.054 136.674Z" stroke="#A4DDD9" stroke-linecap="square"/>
<path d="M48.0539 49.6742C47.9486 49.2042 48.0901 48.6774 48.4722 48.2953C49.0495 47.718 49.9575 47.6899 50.5002 48.2326C50.7076 48.4401 50.8316 48.7009 50.8735 48.9762C50.8885 49.075 50.968 49.1544 51.0668 49.1695C51.3421 49.2113 51.6029 49.3354 51.8104 49.5428C52.3531 50.0855 52.325 50.9935 51.7477 51.5708C51.3656 51.9529 50.8387 52.0944 50.3688 51.9891C49.9646 51.8985 49.4823 51.8709 49.1894 52.1638L46.7928 54.5603L46.5603 54.7928L44.1638 57.1894C43.8709 57.4823 43.8985 57.9646 43.9891 58.3687C44.0944 58.8387 43.9529 59.3656 43.5708 59.7477C42.9935 60.325 42.0855 60.353 41.5428 59.8103C41.3354 59.6029 41.2113 59.3421 41.1695 59.0668C41.1544 58.968 41.075 58.8885 40.9762 58.8735C40.7009 58.8316 40.4401 58.7076 40.2326 58.5001C39.6899 57.9574 39.718 57.0495 40.2953 56.4722C40.6774 56.0901 41.2042 55.9486 41.6742 56.0539C42.0784 56.1445 42.5607 56.1721 42.8536 55.8792L45.2501 53.4826L45.4826 53.2501L47.8792 50.8536C48.1721 50.5607 48.1445 50.0784 48.0539 49.6742Z" stroke="#A4DDD9" stroke-linecap="square"/>
<path d="M265.284 48.3681C268.124 48.2349 269.485 47.6769 271.542 45.8371M271.999 55.9674V55.9674C273.727 55.2685 274.561 53.3011 273.862 51.5732L269.644 41.144C268.945 39.416 266.977 38.5818 265.249 39.2808V39.2808C263.521 39.9797 262.687 41.9471 263.386 43.675L267.604 54.1042C268.303 55.8322 270.271 56.6664 271.999 55.9674Z" stroke="#A4DDD9"/>
<path d="M265.361 41.056C264.529 41.9993 264.95 43.0422 265.161 43.5637" stroke="#A4DDD9" stroke-linecap="round"/>
</g>
<defs>
<clipPath id="clip0_262_936">
<rect width="320" height="145" fill="white"/>
</clipPath>
</defs>
</svg>
