<svg width="89" height="110" viewBox="0 0 89 110" fill="none" xmlns="http://www.w3.org/2000/svg">
<path d="M0 109.422V28.6536H18.6597L44.2152 63.5003L69.7707 28.6536H88.3054V69.0379V109.422H71.2713V53.3466L44.2152 90.0365L17.1591 53.4618V109.422H0Z" fill="#1460A8"/>
<path d="M39.7278 2.63303C39.4181 3.44618 39.4181 4.4142 39.4181 6.4277V10.3385C39.4181 10.5321 39.4181 10.6483 39.3406 10.687C39.2632 10.7645 39.1857 10.7645 38.9921 10.7645H35.0813C33.0678 10.7645 32.061 10.7645 31.2866 11.0742C30.2412 11.5002 29.3893 12.352 28.9634 13.3975C28.6536 14.2106 28.6536 15.1787 28.6536 17.1922C28.6536 19.2057 28.6536 20.2124 28.9634 20.9868C29.3893 22.0323 30.2412 22.8842 31.2866 23.3101C32.0998 23.6199 33.0678 23.6199 35.0813 23.6199H38.9921C39.1857 23.6199 39.3019 23.6199 39.3406 23.6973C39.4181 23.7747 39.4181 23.8522 39.4181 24.0458V27.9566C39.4181 29.9701 39.4181 30.9769 39.7278 31.7513C40.1538 32.7967 41.0056 33.6486 42.0511 34.0745C42.8642 34.3843 43.8323 34.3843 45.8457 34.3843C47.8592 34.3843 48.866 34.3843 49.6404 34.0745C50.6859 33.6486 51.5377 32.7967 51.9637 31.7513C52.2734 30.9381 52.2735 29.9701 52.2735 27.9566V24.0458C52.2735 23.8522 52.2734 23.736 52.3509 23.6973C52.4283 23.6199 52.5058 23.6199 52.6994 23.6199H56.6102C58.6237 23.6199 59.6305 23.6199 60.4049 23.3101C61.4503 22.8842 62.3022 22.0323 62.7281 20.9868C63.0379 20.1737 63.0379 19.2057 63.0379 17.1922C63.0379 15.1787 63.0379 14.1719 62.7281 13.3975C62.3022 12.352 61.4503 11.5002 60.4049 11.0742C59.5917 10.7645 58.6237 10.7645 56.6102 10.7645H52.6994C52.5058 10.7645 52.3896 10.7645 52.3509 10.687C52.2734 10.6096 52.2735 10.5321 52.2735 10.3385V6.4277C52.2735 4.4142 52.2734 3.40745 51.9637 2.63303C51.5377 1.58756 50.6859 0.7357 49.6404 0.309769C48.8273 4.29376e-08 47.8592 0 45.8457 0C43.8323 0 42.8255 4.29376e-08 42.0511 0.309769C41.0056 0.7357 40.1538 1.58756 39.7278 2.63303Z" fill="#49BAB3"/>
</svg>
